<svg width="20" height="20" viewBox="0 0 20 20" fill="none" xmlns="http://www.w3.org/2000/svg">
<g clip-path="url(#clip0_12394_43249)">
<path d="M16.9229 7.69212H16.5268C16.4455 7.46169 16.3522 7.2367 16.2472 7.01717L16.5279 6.7364C17.4253 5.83909 17.426 4.37519 16.5264 3.4698C15.6244 2.57324 14.1605 2.57437 13.2632 3.4713L12.9825 3.75207C12.7629 3.64709 12.5376 3.55412 12.3075 3.47243V3.07674C12.3075 1.80401 11.2725 0.769043 9.99981 0.769043C8.72709 0.769043 7.69212 1.80401 7.69212 3.07674V3.47281C7.46169 3.55412 7.2367 3.64746 7.01717 3.75244L6.7364 3.47168C5.83947 2.57437 4.37556 2.57399 3.4698 3.47318C2.57324 4.37519 2.57399 5.83909 3.4713 6.7364L3.75207 7.01717C3.64709 7.2367 3.55412 7.46206 3.47243 7.69212H3.07674C1.80401 7.69212 0.769043 8.72709 0.769043 9.99981C0.769043 11.2725 1.80401 12.3075 3.07674 12.3075H3.47281C3.55412 12.5379 3.64746 12.7629 3.75244 12.9825L3.47168 13.2632C2.57437 14.1605 2.57362 15.6244 3.47318 16.5298C3.92409 16.9779 4.51472 17.2018 5.10517 17.2018C5.69674 17.2018 6.28756 16.9775 6.7364 16.5283L7.01717 16.2476C7.2367 16.3525 7.46206 16.4455 7.69212 16.5272V16.9229C7.69212 18.1956 8.72709 19.2306 9.99981 19.2306C11.2725 19.2306 12.3075 18.1956 12.3075 16.9229V16.5268C12.5379 16.4455 12.7629 16.3522 12.9825 16.2472L13.2632 16.5279C13.7117 16.9768 14.3018 17.201 14.893 17.201C15.4843 17.201 16.0767 16.9764 16.5294 16.5264C17.426 15.6244 17.4253 14.1605 16.5279 13.2632L16.2472 12.9825C16.3522 12.7629 16.4451 12.5376 16.5268 12.3075H16.9229C18.1956 12.3075 19.2306 11.2725 19.2306 9.99981C19.2306 8.72709 18.1956 7.69212 16.9229 7.69212V7.69212ZM16.9229 10.769H15.9614C15.9448 10.769 15.9294 10.7728 15.9133 10.7741C15.8836 10.776 15.8545 10.7775 15.8256 10.7829C15.8032 10.7867 15.7818 10.7933 15.7602 10.7991C15.7341 10.8064 15.7078 10.8134 15.6828 10.8233C15.6611 10.8318 15.6406 10.8421 15.6197 10.8524C15.5963 10.8644 15.573 10.8759 15.5506 10.8902C15.5313 10.9022 15.514 10.9159 15.496 10.9298C15.4744 10.9463 15.4534 10.9625 15.4336 10.9809C15.4175 10.9963 15.4032 11.0128 15.3887 11.0293C15.3705 11.0498 15.3529 11.0699 15.3371 11.0921C15.3232 11.1114 15.3117 11.1321 15.2997 11.1525C15.2871 11.1745 15.274 11.1959 15.2633 11.2194C15.252 11.244 15.2436 11.2703 15.2348 11.2964C15.2295 11.3129 15.221 11.3283 15.2167 11.3456C15.0901 11.8359 14.8963 12.3037 14.6413 12.7351C14.6325 12.7505 14.6276 12.7667 14.6195 12.7825C14.6067 12.8074 14.594 12.832 14.5844 12.8583C14.5759 12.8814 14.5697 12.9049 14.5637 12.9282C14.5572 12.9524 14.5506 12.9768 14.5463 13.0014C14.5421 13.0268 14.5406 13.0518 14.539 13.0771C14.5374 13.1013 14.5356 13.1248 14.5363 13.149C14.5371 13.174 14.5403 13.1982 14.5433 13.2232C14.5463 13.2478 14.5495 13.272 14.5547 13.2959C14.5602 13.3197 14.5679 13.3425 14.5756 13.3659C14.5833 13.3898 14.591 13.4133 14.6009 13.4364C14.6114 13.4598 14.624 13.4822 14.6372 13.5047C14.6486 13.5252 14.6599 13.5457 14.6732 13.5652C14.6898 13.5891 14.7095 13.611 14.7286 13.6328C14.7395 13.6452 14.748 13.6591 14.7594 13.6706L15.4402 14.3513C15.7394 14.6505 15.7386 15.1403 15.4417 15.4391C15.1397 15.7394 14.6505 15.7401 14.351 15.4406L13.6702 14.7598C13.658 14.747 13.6433 14.7382 13.6302 14.7271C13.609 14.7087 13.5887 14.6901 13.566 14.6744C13.5451 14.6599 13.5237 14.6482 13.5017 14.636C13.4801 14.624 13.4595 14.6118 13.4371 14.6017C13.4133 14.591 13.3887 14.5833 13.3641 14.5752C13.3417 14.5679 13.3194 14.5605 13.2963 14.5553C13.272 14.5498 13.2474 14.5466 13.2225 14.5436C13.1979 14.5406 13.1736 14.5374 13.1487 14.5367C13.1248 14.5359 13.1013 14.5378 13.0779 14.5395C13.0521 14.541 13.0268 14.5425 13.0011 14.5466C12.9768 14.5506 12.9534 14.5575 12.9295 14.5637C12.9053 14.5701 12.8814 14.5759 12.8579 14.5848C12.832 14.5944 12.8074 14.6071 12.7828 14.6195C12.7671 14.6276 12.7509 14.6321 12.7355 14.6413C12.3037 14.8963 11.8363 15.0901 11.346 15.2167C11.3287 15.2214 11.3137 15.2291 11.2971 15.2348C11.2707 15.2436 11.2444 15.252 11.2194 15.2637C11.1967 15.274 11.1756 15.2868 11.154 15.299C11.1328 15.3114 11.1114 15.3232 11.0913 15.3379C11.0703 15.3533 11.0509 15.3702 11.0314 15.3871C11.0137 15.4025 10.9959 15.4179 10.9798 15.4348C10.9621 15.4534 10.9467 15.4733 10.9313 15.4937C10.9167 15.5129 10.9018 15.5317 10.889 15.5521C10.8759 15.573 10.8648 15.5948 10.8537 15.6171C10.8425 15.6391 10.8314 15.6611 10.8222 15.6843C10.8128 15.7082 10.8064 15.7334 10.7995 15.758C10.7933 15.7805 10.7863 15.8032 10.7822 15.8267C10.7771 15.8549 10.7752 15.8836 10.7737 15.9121C10.7728 15.9287 10.769 15.9444 10.769 15.9614V16.9229C10.769 17.3471 10.4241 17.6921 9.99981 17.6921C9.57557 17.6921 9.23058 17.3471 9.23058 16.9229V15.9614C9.23058 15.9444 9.22683 15.9287 9.22551 15.9118C9.22363 15.8829 9.22213 15.8545 9.21706 15.8263C9.21293 15.8028 9.20636 15.7801 9.19978 15.7576C9.19283 15.7324 9.18626 15.7078 9.17706 15.684C9.16823 15.6605 9.15678 15.6391 9.14551 15.6167C9.13443 15.5948 9.12372 15.573 9.1102 15.5518C9.09706 15.5313 9.08259 15.5125 9.06795 15.4934C9.05255 15.4733 9.03715 15.4534 9.01949 15.4344C9.00334 15.4175 8.9855 15.4021 8.96785 15.3867C8.94832 15.3694 8.92897 15.3525 8.90794 15.3375C8.88785 15.3232 8.86681 15.3114 8.84521 15.2986C8.82362 15.2864 8.80296 15.2736 8.77986 15.2633C8.75488 15.2517 8.72859 15.2432 8.70211 15.2344C8.68558 15.2291 8.67056 15.221 8.65328 15.2163C8.16294 15.0898 7.69512 14.896 7.26375 14.6409C7.24872 14.6321 7.23257 14.627 7.21717 14.6195C7.19182 14.6067 7.16665 14.5936 7.14017 14.584C7.11783 14.5756 7.09473 14.5701 7.07219 14.5641C7.04721 14.5572 7.02205 14.5506 6.99669 14.5463C6.97247 14.5425 6.94824 14.541 6.92402 14.5395C6.89904 14.5378 6.87406 14.5359 6.84908 14.5367C6.82523 14.5374 6.80176 14.5406 6.77828 14.5436C6.75255 14.5466 6.7272 14.5498 6.70204 14.5557C6.6795 14.5605 6.65753 14.5682 6.63555 14.5752C6.61058 14.5833 6.58635 14.591 6.56212 14.6017C6.5394 14.6118 6.51837 14.624 6.49639 14.6364C6.47517 14.6482 6.45358 14.6599 6.43329 14.674C6.40982 14.6901 6.3886 14.7091 6.36719 14.7279C6.35442 14.739 6.34014 14.7476 6.32831 14.7598L5.64754 15.4406C5.34818 15.7397 4.85896 15.739 4.5598 15.4421C4.2595 15.1397 4.25875 14.6505 4.55829 14.3513L5.23907 13.6706C5.2509 13.6587 5.25898 13.6452 5.26987 13.6328C5.28902 13.611 5.30874 13.5891 5.32527 13.5652C5.3386 13.5457 5.34987 13.5252 5.36133 13.5047C5.3741 13.4822 5.38706 13.4602 5.39757 13.4364C5.40753 13.4133 5.41523 13.3898 5.42293 13.3659C5.43063 13.3428 5.43833 13.3197 5.44358 13.2959C5.44903 13.2717 5.45204 13.2474 5.45523 13.2232C5.45823 13.1986 5.4618 13.174 5.46218 13.149C5.46293 13.1248 5.46105 13.1013 5.45936 13.0771C5.45786 13.0518 5.45636 13.0268 5.45204 13.0014C5.4479 12.9768 5.44133 12.9524 5.43476 12.9282C5.42875 12.9049 5.42293 12.8814 5.4141 12.8583C5.40433 12.832 5.39175 12.8074 5.37898 12.7825C5.37128 12.7667 5.3664 12.7505 5.3572 12.7351C5.10216 12.3032 4.90835 11.8359 4.78178 11.3456C4.77708 11.3283 4.76901 11.3129 4.76375 11.2964C4.75473 11.2703 4.74666 11.2444 4.73558 11.2198C4.72487 11.1963 4.71173 11.1745 4.69896 11.1525C4.68712 11.1321 4.67567 11.1114 4.66177 11.0921C4.646 11.0699 4.62834 11.0498 4.61013 11.0299C4.59529 11.0128 4.58102 10.9963 4.56487 10.9809C4.54552 10.9629 4.52486 10.9467 4.50364 10.9306C4.48524 10.9163 4.46759 10.9026 4.44787 10.8898C4.42627 10.8759 4.40373 10.8648 4.38101 10.8534C4.35941 10.8425 4.33819 10.8314 4.31566 10.8226C4.29143 10.8134 4.26683 10.8064 4.24129 10.7995C4.21875 10.7933 4.19603 10.7863 4.17255 10.7822C4.14476 10.7771 4.11677 10.7756 4.08823 10.7737C4.07208 10.7728 4.05555 10.769 4.03827 10.769H3.07674C2.65249 10.769 2.3075 10.4241 2.3075 9.99981C2.3075 9.57557 2.65249 9.23058 3.07674 9.23058H4.03752H4.03902C4.04015 9.23058 4.04128 9.22983 4.04297 9.22983C4.11978 9.22945 4.19283 9.21443 4.26288 9.19283C4.2764 9.1887 4.28936 9.18551 4.30251 9.18063C4.37106 9.15565 4.43435 9.12128 4.49219 9.07903C4.50289 9.07133 4.51209 9.0625 4.52205 9.05405C4.58064 9.00635 4.63398 8.95282 4.67604 8.89066C4.67717 8.88897 4.67755 8.88709 4.67867 8.88559C4.7213 8.82136 4.75173 8.74944 4.7737 8.67357C4.77595 8.66643 4.78102 8.66061 4.7829 8.65291C4.90948 8.16256 5.10329 7.69475 5.35832 7.26318C5.36715 7.24797 5.37203 7.23182 5.38011 7.21605C5.39288 7.19088 5.40565 7.16628 5.41523 7.14017C5.42368 7.11707 5.42988 7.0936 5.43588 7.07012C5.44246 7.0459 5.44903 7.02167 5.45335 6.99707C5.45748 6.97172 5.45898 6.94674 5.46067 6.92139C5.46218 6.89716 5.46406 6.87369 5.4633 6.84946C5.46255 6.82448 5.45936 6.80026 5.45636 6.77528C5.45335 6.75049 5.45016 6.72626 5.4449 6.70241C5.43945 6.67875 5.43175 6.65602 5.42405 6.63255C5.41635 6.6087 5.40865 6.58522 5.3987 6.56212C5.38818 6.53865 5.3756 6.5163 5.36246 6.49358C5.351 6.47329 5.33973 6.45282 5.3264 6.43329C5.30987 6.40944 5.29015 6.38747 5.271 6.3655C5.2601 6.35329 5.25165 6.33939 5.2402 6.32794L4.55942 5.64716C4.26025 5.34781 4.26101 4.85821 4.55792 4.55942C4.86028 4.2595 5.3495 4.25875 5.64866 4.55792L6.32944 5.23869C6.33094 5.2402 6.33244 5.24095 6.33413 5.24207C6.34334 5.25128 6.35404 5.25785 6.36399 5.26668C6.40062 5.29935 6.43912 5.32828 6.47987 5.35288C6.49602 5.36246 6.51255 5.37053 6.52945 5.37898C6.56832 5.3987 6.60832 5.41448 6.64908 5.42706C6.6656 5.43213 6.68175 5.43795 6.69866 5.44171C6.75518 5.45485 6.81246 5.46368 6.87049 5.46368C6.87181 5.46368 6.87293 5.46406 6.87406 5.46406C6.87631 5.46406 6.87857 5.4633 6.88101 5.4633C6.93829 5.46255 6.99482 5.4541 7.05097 5.44058C7.06787 5.43626 7.0844 5.431 7.1013 5.42556C7.1475 5.41128 7.1922 5.3925 7.23558 5.36903C7.24478 5.36396 7.25511 5.36246 7.2645 5.3572C7.69644 5.10216 8.16369 4.90835 8.65403 4.78178C8.67131 4.77708 8.68634 4.76938 8.70286 4.76375C8.72934 4.75473 8.75563 4.74628 8.78061 4.73483C8.80334 4.7245 8.82437 4.71173 8.84597 4.69952C8.86719 4.68712 8.8886 4.67511 8.90869 4.66064C8.92973 4.64524 8.94907 4.62834 8.9686 4.61144C8.98644 4.59604 9.00409 4.58064 9.02025 4.56374C9.0379 4.54515 9.0533 4.52524 9.0687 4.50477C9.08335 4.48561 9.09818 4.46665 9.11095 4.44636C9.1241 4.42552 9.13518 4.40373 9.14626 4.38139C9.15753 4.35941 9.16861 4.33744 9.17781 4.31396C9.1872 4.29011 9.19358 4.26514 9.20053 4.24053C9.20673 4.21781 9.21368 4.19527 9.21781 4.1718C9.22288 4.14363 9.22476 4.1149 9.22626 4.08635C9.22683 4.07095 9.23058 4.05518 9.23058 4.03827V3.07674C9.23058 2.65249 9.57557 2.3075 9.99981 2.3075C10.4241 2.3075 10.769 2.65249 10.769 3.07674V4.03827C10.769 4.05518 10.7728 4.07095 10.7741 4.08785C10.776 4.11677 10.7775 4.14513 10.7826 4.1733C10.7867 4.19678 10.7933 4.2195 10.7998 4.24204C10.8068 4.2672 10.8134 4.2918 10.8226 4.31566C10.8314 4.33913 10.8428 4.36054 10.8541 4.38289C10.8652 4.40486 10.8759 4.42665 10.8894 4.44787C10.9026 4.46834 10.917 4.48712 10.9317 4.50627C10.9471 4.52637 10.9625 4.54627 10.9801 4.56524C10.9963 4.58214 11.0141 4.59754 11.0318 4.61294C11.0513 4.63022 11.0707 4.64712 11.0917 4.66215C11.1118 4.67642 11.1328 4.68825 11.1544 4.70102C11.176 4.71323 11.1967 4.726 11.2198 4.73633C11.2447 4.74797 11.271 4.75642 11.2975 4.76525C11.314 4.77051 11.3291 4.77858 11.3463 4.78328C11.8367 4.90986 12.3045 5.10367 12.7359 5.3587C12.7453 5.36396 12.7552 5.36565 12.7648 5.37091C12.8082 5.39401 12.8525 5.41297 12.8987 5.42743C12.9156 5.43288 12.9321 5.43833 12.949 5.44246C13.0052 5.45598 13.0617 5.46443 13.119 5.46518C13.1214 5.46518 13.1237 5.46593 13.1259 5.46593C13.1271 5.46593 13.1282 5.46556 13.1295 5.46556C13.1872 5.46518 13.2448 5.45673 13.3013 5.44358C13.3182 5.43983 13.3344 5.43401 13.3509 5.42912C13.3921 5.41635 13.4317 5.40058 13.4709 5.38105C13.4878 5.3726 13.5044 5.36452 13.5205 5.35476C13.5613 5.33053 13.5998 5.30142 13.6364 5.26874C13.646 5.2601 13.6567 5.25334 13.6664 5.24395C13.6679 5.24245 13.6694 5.2417 13.6709 5.24057L14.3517 4.5598C14.6514 4.26063 15.1407 4.26213 15.4395 4.55829C15.7397 4.86065 15.7405 5.34987 15.441 5.64904L14.7602 6.32982C14.7483 6.34165 14.7403 6.35517 14.7294 6.36756C14.7102 6.38935 14.6905 6.41132 14.674 6.43517C14.6606 6.45489 14.6494 6.47517 14.6379 6.49564C14.6252 6.51837 14.6122 6.54015 14.6017 6.564C14.5917 6.5871 14.584 6.61058 14.5763 6.63443C14.5686 6.65753 14.5609 6.68063 14.5557 6.70448C14.5502 6.7287 14.5472 6.75293 14.544 6.77716C14.541 6.80176 14.5374 6.82636 14.5371 6.85134C14.5363 6.87556 14.5382 6.89904 14.5399 6.92326C14.5414 6.94862 14.5429 6.9736 14.5472 6.99914C14.5513 7.02374 14.5579 7.04796 14.5645 7.07219C14.5705 7.09567 14.5763 7.11895 14.5851 7.14205C14.5947 7.16834 14.6075 7.19295 14.6203 7.21792C14.628 7.2337 14.6329 7.24985 14.6421 7.26525C14.8971 7.69719 15.0909 8.16444 15.2175 8.65479C15.2194 8.66249 15.2244 8.66793 15.2267 8.67563C15.2486 8.75131 15.2791 8.82287 15.3213 8.88709C15.3225 8.8886 15.3228 8.89066 15.324 8.89217C15.3664 8.95451 15.4194 9.00785 15.4776 9.05518C15.4879 9.06363 15.4971 9.07245 15.5078 9.08053C15.5657 9.12297 15.6291 9.15678 15.6971 9.18175C15.7103 9.18682 15.7236 9.1902 15.7371 9.19396C15.8072 9.21556 15.8802 9.23021 15.957 9.23058C15.9583 9.23058 15.9595 9.23133 15.961 9.23133H15.9625H16.9229C17.3471 9.23133 17.6921 9.57632 17.6921 10.0006C17.6921 10.4248 17.3471 10.769 16.9229 10.769V10.769Z" fill="#A0A0A0"/>
<path d="M9.99996 6.15381C7.87935 6.15381 6.15381 7.87935 6.15381 9.99996C6.15381 12.1206 7.87935 13.8461 9.99996 13.8461C12.1206 13.8461 13.8461 12.1206 13.8461 9.99996C13.8461 7.87935 12.1206 6.15381 9.99996 6.15381ZM9.99996 12.4475C8.65036 12.4475 7.55241 11.3496 7.55241 9.99996C7.55241 8.65036 8.65036 7.55241 9.99996 7.55241C11.3496 7.55241 12.4475 8.65036 12.4475 9.99996C12.4475 11.3496 11.3496 12.4475 9.99996 12.4475Z" fill="#A0A0A0"/>
</g>
<defs>
<clipPath id="clip0_12394_43249">
<rect width="20" height="20" fill="white"/>
</clipPath>
</defs>
</svg>
